<svg width="40" height="40" viewBox="0 0 40 40" fill="none" xmlns="http://www.w3.org/2000/svg">
<path fill-rule="evenodd" clip-rule="evenodd" d="M20 4.58335C17.722 4.58378 15.4979 5.27575 13.6217 6.56771C11.7455 7.85967 10.3058 9.69076 9.49285 11.8188C8.67995 13.9468 8.5322 16.2714 9.06917 18.4852C9.60613 20.699 10.8025 22.6976 12.5 24.2167L12.505 24.2234C13.4333 25.055 14.1383 25.685 14.6417 26.1483C15.1167 26.5817 15.4917 26.9384 15.69 27.1817L15.71 27.2067C16.08 27.6617 16.4 28.0584 16.6133 28.5334C16.825 29.0067 16.905 29.5117 16.9983 30.09L17.0033 30.1234C17.0517 30.42 17.07 30.7833 17.0783 31.25H22.9217C22.93 30.7833 22.9483 30.42 22.9967 30.1234L23.0017 30.09C23.095 29.5117 23.175 29.0067 23.3867 28.5334C23.6 28.0584 23.92 27.6617 24.29 27.2067L24.31 27.1817C24.5083 26.9384 24.8833 26.5817 25.3583 26.1483C25.8617 25.685 26.5667 25.055 27.495 24.2234L27.5017 24.2167C29.1993 22.6975 30.3957 20.6987 30.9326 18.4848C31.4695 16.2708 31.3217 13.9461 30.5085 11.818C29.6954 9.68991 28.2554 7.85884 26.379 6.567C24.5025 5.27517 22.2781 4.58345 20 4.58335ZM22.9067 33.75H17.0933C17.1 33.9222 17.1089 34.0761 17.12 34.2117C17.1533 34.5867 17.2117 34.7234 17.2517 34.7917C17.3613 34.9813 17.5187 35.1388 17.7083 35.2484C17.775 35.2884 17.9133 35.345 18.2883 35.38C18.68 35.415 19.1983 35.4167 20 35.4167C20.8017 35.4167 21.32 35.4167 21.7117 35.38C22.0867 35.3467 22.2233 35.2884 22.2917 35.2484C22.4813 35.1388 22.6388 34.9813 22.7483 34.7917C22.7883 34.725 22.8467 34.5867 22.88 34.2117C22.8911 34.0761 22.9 33.9222 22.9067 33.75ZM6.25001 15.8334C6.25018 13.54 6.82397 11.2831 7.91914 9.26814C9.01432 7.25318 10.5961 5.54415 12.5205 4.29664C14.4448 3.04913 16.6507 2.30276 18.9372 2.12549C21.2237 1.94822 23.5182 2.34568 25.6118 3.28167C27.7055 4.21767 29.5318 5.66247 30.9244 7.48455C32.3171 9.30663 33.2319 11.4481 33.5855 13.714C33.9392 15.98 33.7205 18.2984 32.9493 20.4582C32.1781 22.618 30.8789 24.5506 29.17 26.08C28.459 26.7131 27.7512 27.3498 27.0467 27.99C26.7978 28.2187 26.5533 28.4521 26.3133 28.69L26.2533 28.755C25.82 29.29 25.725 29.4284 25.67 29.5534C25.6133 29.6784 25.5733 29.84 25.465 30.52C25.4217 30.7884 25.4167 31.2484 25.4167 32.5V32.5534C25.4167 33.2867 25.4167 33.92 25.37 34.4367C25.32 34.9867 25.21 35.53 24.915 36.0417C24.5858 36.6121 24.1121 37.0858 23.5417 37.415C23.03 37.71 22.4867 37.82 21.9383 37.87C21.4183 37.9167 20.7867 37.9167 20.055 37.9167H19.9467C19.2133 37.9167 18.58 37.9167 18.0633 37.87C17.5133 37.82 16.97 37.71 16.4583 37.415C15.8879 37.0858 15.4142 36.6121 15.085 36.0417C14.79 35.53 14.68 34.9867 14.63 34.4384C14.5833 33.9184 14.5833 33.2867 14.5833 32.555V32.5C14.5833 31.25 14.5783 30.7884 14.535 30.52C14.4267 29.84 14.385 29.6784 14.33 29.5534C14.275 29.4284 14.18 29.29 13.7467 28.7534L13.73 28.7367L13.6867 28.6883L13.525 28.5267C13.3369 28.3452 13.1464 28.1663 12.9533 27.99C12.4617 27.54 11.7667 26.9184 10.83 26.08C9.38726 24.7916 8.23334 23.2125 7.44401 21.4466C6.65467 19.6806 6.24777 17.7677 6.25001 15.8334Z" fill="#70B5FF"/>
<path fill-rule="evenodd" clip-rule="evenodd" d="M22.0362 13.15C22.3058 13.3428 22.4877 13.6347 22.5421 13.9616C22.5965 14.2885 22.5188 14.6236 22.3262 14.8933L20.1662 17.9166H22.7379C22.9675 17.9167 23.1927 17.9801 23.3887 18.0997C23.5847 18.2194 23.744 18.3907 23.849 18.5949C23.9541 18.7991 24.0008 19.0283 23.9842 19.2574C23.9675 19.4864 23.888 19.7064 23.7545 19.8933L20.1829 24.8933C20.0892 25.0311 19.9689 25.1487 19.8291 25.2393C19.6893 25.3299 19.5327 25.3916 19.3687 25.4209C19.2047 25.4501 19.0365 25.4463 18.874 25.4096C18.7115 25.3729 18.558 25.3041 18.4224 25.2072C18.2869 25.1103 18.1721 24.9874 18.0848 24.8455C17.9975 24.7036 17.9394 24.5457 17.9139 24.381C17.8885 24.2164 17.8963 24.0483 17.9367 23.8867C17.9772 23.7251 18.0495 23.5732 18.1495 23.44L20.3079 20.4166H17.7379C17.5082 20.4166 17.283 20.3532 17.087 20.2336C16.891 20.1139 16.7317 19.9426 16.6267 19.7384C16.5217 19.5341 16.4749 19.3049 16.4916 19.0759C16.5083 18.8469 16.5877 18.6268 16.7212 18.44L20.2912 13.44C20.3867 13.3063 20.5076 13.1927 20.6469 13.1057C20.7863 13.0188 20.9415 12.9602 21.1036 12.9332C21.2657 12.9063 21.4314 12.9116 21.5915 12.9488C21.7515 12.986 21.9026 13.0543 22.0362 13.15Z" fill="#70B5FF"/>
</svg>
