<svg width="40" height="40" viewBox="0 0 40 40" fill="none" xmlns="http://www.w3.org/2000/svg">
<path d="M26.8001 33.5924L25.9162 34.4762V34.4762L26.8001 33.5924ZM33.5964 26.7961L32.7125 27.68L33.5964 26.7961ZM13.2077 6.40746L14.0916 5.52357L13.2077 6.40746ZM6.41145 13.2037L7.29533 12.3198H7.29533L6.41145 13.2037ZM9.12002 15.7826C8.63187 16.2708 8.63187 17.0623 9.12002 17.5504C9.60818 18.0386 10.3996 18.0386 10.8878 17.5504L9.12002 15.7826ZM17.5545 10.8837C18.0426 10.3956 18.0426 9.60413 17.5545 9.11597C17.0663 8.62781 16.2748 8.62781 15.7867 9.11597L17.5545 10.8837ZM25.667 6.12617L26.1271 7.28843V7.28843L25.667 6.12617ZM26.1209 5.67059L24.9575 5.21344V5.21344L26.1209 5.67059ZM23.8483 8.3507L24.3083 7.18845V7.18845L23.8483 8.3507ZM23.8483 6.84613L23.3882 5.68388H23.3882L23.8483 6.84613ZM26.1209 9.52625L24.9575 9.9834V9.9834L26.1209 9.52625ZM25.667 9.07066L25.2069 10.2329V10.2329L25.667 9.07066ZM28.3373 11.3517L29.5007 11.8089L29.5007 11.8089L28.3373 11.3517ZM26.8382 11.3517L28.0016 10.8946V10.8946L26.8382 11.3517ZM29.5085 9.07066L29.9685 10.2329V10.2329L29.5085 9.07066ZM29.0546 9.52625L27.8912 9.0691L27.8911 9.0691L29.0546 9.52625ZM31.3272 6.84613L30.8671 8.00838V8.00838L31.3272 6.84613ZM31.3272 8.3507L30.8671 7.18845V7.18845L31.3272 8.3507ZM29.0546 5.67059L30.218 5.21344V5.21344L29.0546 5.67059ZM29.5085 6.12617L29.9685 4.96392V4.96392L29.5085 6.12617ZM28.3373 3.84511L27.1738 4.30226V4.30226L28.3373 3.84511ZM26.8382 3.84511L28.0016 4.30226V4.30226L26.8382 3.84511ZM32.568 16.3368L32.108 15.1745L32.108 15.1745L32.568 16.3368ZM33.0219 15.8812L31.8585 15.424V15.424L33.0219 15.8812ZM31.9049 18.1038L31.4448 19.2661L31.4448 19.2661L31.9049 18.1038ZM31.9049 16.5993L32.365 17.7615L32.365 17.7615L31.9049 16.5993ZM33.0219 18.8219L34.1853 18.3648V18.3648L33.0219 18.8219ZM32.568 18.3663L33.0281 17.2041L33.0281 17.2041L32.568 18.3663ZM34.7825 19.4875L35.9459 19.9447V19.9447L34.7825 19.4875ZM33.2835 19.4875L32.1201 19.9447V19.9447L33.2835 19.4875ZM35.4979 18.3663L35.0379 17.2041V17.2041L35.4979 18.3663ZM35.044 18.8219L33.8806 18.3648V18.3648L35.044 18.8219ZM36.1611 16.5993L35.701 17.7615L35.701 17.7615L36.1611 16.5993ZM36.1611 18.1038L36.6211 19.2661L36.6211 19.2661L36.1611 18.1038ZM35.044 15.8812L36.2074 15.424V15.424L35.044 15.8812ZM35.4979 16.3368L35.958 15.1745L35.958 15.1745L35.4979 16.3368ZM34.7825 15.2156L33.6191 15.6728V15.6728L34.7825 15.2156ZM33.2835 15.2156L34.4469 15.6728V15.6728L33.2835 15.2156ZM7.84426 26.633L7.38418 25.4708H7.38418L7.84426 26.633ZM8.29817 26.1774L7.13476 25.7203H7.13476L8.29817 26.1774ZM7.18113 28.4001L7.64121 27.2378V27.2378L7.18113 28.4001ZM7.18113 26.8955L7.64121 28.0578V28.0578L7.18113 26.8955ZM8.29817 29.1182L7.13476 29.5753H7.13476L8.29817 29.1182ZM7.84426 28.6626L7.38418 29.8248H7.38418L7.84426 28.6626ZM10.0587 29.7837L8.89532 29.3266L8.89532 29.3266L10.0587 29.7837ZM8.5597 29.7837L9.72311 29.3266L9.72311 29.3266L8.5597 29.7837ZM10.7742 28.6626L11.2342 29.8248H11.2342L10.7742 28.6626ZM10.3203 29.1182L11.4837 29.5753V29.5753L10.3203 29.1182ZM11.4373 26.8955L10.9772 28.0578V28.0578L11.4373 26.8955ZM11.4373 28.4001L10.9772 27.2378V27.2378L11.4373 28.4001ZM10.3203 26.1774L11.4837 25.7203V25.7203L10.3203 26.1774ZM10.7742 26.633L11.2342 25.4708H11.2342L10.7742 26.633ZM10.0587 25.5118L8.89532 25.969H8.89532L10.0587 25.5118ZM8.5597 25.5118L9.72311 25.969H9.72311L8.5597 25.5118ZM13.2077 6.40746L12.3238 7.29134L32.7125 27.68L33.5964 26.7961L34.4802 25.9123L14.0916 5.52357L13.2077 6.40746ZM26.8001 33.5924L27.684 32.7085L7.29533 12.3198L6.41145 13.2037L5.52757 14.0876L25.9162 34.4762L26.8001 33.5924ZM33.5964 33.5924L32.7125 32.7085C31.3239 34.0971 29.0726 34.0971 27.684 32.7085L26.8001 33.5924L25.9162 34.4762C28.2811 36.8411 32.1154 36.8411 34.4802 34.4762L33.5964 33.5924ZM33.5964 26.7961L32.7125 27.68C34.101 29.0686 34.101 31.3199 32.7125 32.7085L33.5964 33.5924L34.4802 34.4762C36.8451 32.1114 36.8451 28.2771 34.4802 25.9123L33.5964 26.7961ZM6.41145 6.40746L7.29533 7.29134C8.68391 5.90277 10.9352 5.90277 12.3238 7.29134L13.2077 6.40746L14.0916 5.52357C11.7267 3.15869 7.89245 3.15869 5.52757 5.52357L6.41145 6.40746ZM6.41145 6.40746L5.52757 5.52357C3.16269 7.88846 3.16269 11.7227 5.52757 14.0876L6.41145 13.2037L7.29533 12.3198C5.90676 10.9312 5.90676 8.67991 7.29533 7.29134L6.41145 6.40746ZM10.0039 16.6665L10.8878 17.5504L17.5545 10.8837L16.6706 9.99985L15.7867 9.11597L9.12002 15.7826L10.0039 16.6665ZM28.3373 3.84511L27.1738 4.30226L27.8912 6.12774L29.0546 5.67059L30.218 5.21344L29.5007 3.38796L28.3373 3.84511ZM29.5085 6.12617L29.0484 7.28843L30.8671 8.00838L31.3272 6.84613L31.7873 5.68388L29.9685 4.96392L29.5085 6.12617ZM31.3272 8.3507L30.8671 7.18845L29.0484 7.90841L29.5085 9.07066L29.9685 10.2329L31.7873 9.51295L31.3272 8.3507ZM29.0546 9.52625L27.8911 9.0691L27.1738 10.8946L28.3373 11.3517L29.5007 11.8089L30.218 9.98339L29.0546 9.52625ZM26.8382 11.3517L28.0016 10.8946L27.2843 9.0691L26.1209 9.52625L24.9575 9.9834L25.6748 11.8089L26.8382 11.3517ZM25.667 9.07066L26.1271 7.90841L24.3083 7.18845L23.8483 8.3507L23.3882 9.51295L25.2069 10.2329L25.667 9.07066ZM23.8483 6.84613L24.3083 8.00838L26.1271 7.28843L25.667 6.12617L25.2069 4.96392L23.3882 5.68388L23.8483 6.84613ZM26.1209 5.67059L27.2843 6.12774L28.0016 4.30226L26.8382 3.84511L25.6748 3.38796L24.9575 5.21344L26.1209 5.67059ZM25.667 6.12617L26.1271 7.28843C26.6577 7.07838 27.0762 6.65747 27.2843 6.12774L26.1209 5.67059L24.9575 5.21344C25.0019 5.10053 25.0916 5.00958 25.2069 4.96392L25.667 6.12617ZM23.8483 8.3507L24.3083 7.18845C24.6814 7.33614 24.6814 7.86069 24.3083 8.00838L23.8483 6.84613L23.3882 5.68388C21.6548 6.37004 21.6548 8.8268 23.3882 9.51295L23.8483 8.3507ZM26.1209 9.52625L27.2843 9.0691C27.0762 8.53936 26.6577 8.11846 26.1271 7.90841L25.667 9.07066L25.2069 10.2329C25.0916 10.1873 25.0019 10.0963 24.9575 9.9834L26.1209 9.52625ZM28.3373 11.3517L27.1738 10.8946C27.321 10.5201 27.8545 10.5201 28.0016 10.8946L26.8382 11.3517L25.6748 11.8089C26.3585 13.5486 28.817 13.5486 29.5007 11.8089L28.3373 11.3517ZM29.5085 9.07066L29.0484 7.90841C28.5178 8.11846 28.0993 8.53935 27.8912 9.0691L29.0546 9.52625L30.218 9.9834C30.1736 10.0963 30.0839 10.1873 29.9685 10.2329L29.5085 9.07066ZM31.3272 6.84613L30.8671 8.00838C30.494 7.86069 30.494 7.33615 30.8671 7.18845L31.3272 8.3507L31.7873 9.51295C33.5207 8.82679 33.5206 6.37003 31.7873 5.68388L31.3272 6.84613ZM29.0546 5.67059L27.8912 6.12774C28.0993 6.65748 28.5178 7.07838 29.0484 7.28843L29.5085 6.12617L29.9685 4.96392C30.0839 5.00958 30.1736 5.10053 30.218 5.21344L29.0546 5.67059ZM28.3373 3.84511L29.5007 3.38796C28.817 1.64818 26.3584 1.64819 25.6748 3.38796L26.8382 3.84511L28.0016 4.30226C27.8545 4.67675 27.321 4.67675 27.1738 4.30226L28.3373 3.84511ZM34.7825 15.2156L33.6191 15.6728L33.8806 16.3383L35.044 15.8812L36.2074 15.424L35.9459 14.7585L34.7825 15.2156ZM35.4979 16.3368L35.0379 17.499L35.701 17.7615L36.1611 16.5993L36.6211 15.437L35.958 15.1745L35.4979 16.3368ZM36.1611 18.1038L35.701 16.9416L35.0379 17.2041L35.4979 18.3663L35.958 19.5286L36.6211 19.2661L36.1611 18.1038ZM35.044 18.8219L33.8806 18.3648L33.6191 19.0304L34.7825 19.4875L35.9459 19.9447L36.2074 19.2791L35.044 18.8219ZM33.2835 19.4875L34.4469 19.0304L34.1853 18.3648L33.0219 18.8219L31.8585 19.2791L32.1201 19.9447L33.2835 19.4875ZM32.568 18.3663L33.0281 17.2041L32.365 16.9416L31.9049 18.1038L31.4448 19.2661L32.108 19.5286L32.568 18.3663ZM31.9049 16.5993L32.365 17.7615L33.0281 17.499L32.568 16.3368L32.108 15.1745L31.4448 15.437L31.9049 16.5993ZM33.0219 15.8812L34.1853 16.3383L34.4469 15.6728L33.2835 15.2156L32.1201 14.7585L31.8585 15.424L33.0219 15.8812ZM32.568 16.3368L33.0281 17.499C33.5587 17.289 33.9772 16.8681 34.1853 16.3383L33.0219 15.8812L31.8585 15.424C31.9029 15.3111 31.9926 15.2202 32.108 15.1745L32.568 16.3368ZM31.9049 18.1038L32.365 16.9416C32.7381 17.0893 32.7381 17.6138 32.365 17.7615L31.9049 16.5993L31.4448 15.437C29.7115 16.1232 29.7115 18.5799 31.4448 19.2661L31.9049 18.1038ZM33.0219 18.8219L34.1853 18.3648C33.9772 17.8351 33.5587 17.4141 33.0281 17.2041L32.568 18.3663L32.108 19.5286C31.9926 19.4829 31.9029 19.392 31.8585 19.2791L33.0219 18.8219ZM34.7825 19.4875L33.6191 19.0304C33.7662 18.6559 34.2997 18.6559 34.4469 19.0304L33.2835 19.4875L32.1201 19.9447C32.8037 21.6844 35.2623 21.6844 35.9459 19.9447L34.7825 19.4875ZM35.4979 18.3663L35.0379 17.2041C34.5072 17.4141 34.0888 17.835 33.8806 18.3648L35.044 18.8219L36.2074 19.2791C36.1631 19.392 36.0733 19.4829 35.958 19.5286L35.4979 18.3663ZM36.1611 16.5993L35.701 17.7615C35.3279 17.6138 35.3279 17.0893 35.701 16.9416L36.1611 18.1038L36.6211 19.2661C38.3545 18.5799 38.3545 16.1232 36.6211 15.437L36.1611 16.5993ZM35.044 15.8812L33.8806 16.3383C34.0888 16.8681 34.5072 17.289 35.0379 17.499L35.4979 16.3368L35.958 15.1745C36.0733 15.2202 36.1631 15.3111 36.2074 15.424L35.044 15.8812ZM34.7825 15.2156L35.9459 14.7585C35.2623 13.0187 32.8037 13.0187 32.1201 14.7585L33.2835 15.2156L34.4469 15.6728C34.2997 16.0473 33.7662 16.0473 33.6191 15.6728L34.7825 15.2156ZM10.0587 25.5118L8.89532 25.969L9.15685 26.6346L10.3203 26.1774L11.4837 25.7203L11.2221 25.0547L10.0587 25.5118ZM10.7742 26.633L10.3141 27.7953L10.9772 28.0578L11.4373 26.8955L11.8974 25.7333L11.2342 25.4708L10.7742 26.633ZM11.4373 28.4001L10.9772 27.2378L10.3141 27.5003L10.7742 28.6626L11.2342 29.8248L11.8974 29.5623L11.4373 28.4001ZM10.3203 29.1182L9.15685 28.661L8.89532 29.3266L10.0587 29.7837L11.2221 30.2409L11.4837 29.5753L10.3203 29.1182ZM8.5597 29.7837L9.72311 29.3266L9.46157 28.661L8.29817 29.1182L7.13476 29.5753L7.3963 30.2409L8.5597 29.7837ZM7.84426 28.6626L8.30434 27.5003L7.64121 27.2378L7.18113 28.4001L6.72105 29.5623L7.38418 29.8248L7.84426 28.6626ZM7.18113 26.8955L7.64121 28.0578L8.30434 27.7953L7.84426 26.633L7.38418 25.4708L6.72105 25.7333L7.18113 26.8955ZM8.29817 26.1774L9.46157 26.6346L9.72311 25.969L8.5597 25.5118L7.3963 25.0547L7.13476 25.7203L8.29817 26.1774ZM7.84426 26.633L8.30434 27.7953C8.83497 27.5852 9.25342 27.1643 9.46157 26.6346L8.29817 26.1774L7.13476 25.7203C7.17913 25.6074 7.26884 25.5164 7.38418 25.4708L7.84426 26.633ZM7.18113 28.4001L7.64121 27.2378C8.01431 27.3855 8.01431 27.9101 7.64121 28.0578L7.18113 26.8955L6.72105 25.7333C4.9877 26.4194 4.9877 28.8762 6.72105 29.5623L7.18113 28.4001ZM8.29817 29.1182L9.46157 28.661C9.25342 28.1313 8.83497 27.7104 8.30434 27.5003L7.84426 28.6626L7.38418 29.8248C7.26884 29.7792 7.17913 29.6882 7.13476 29.5753L8.29817 29.1182ZM10.0587 29.7837L8.89532 29.3266C9.04247 28.9521 9.57595 28.9521 9.72311 29.3266L8.5597 29.7837L7.3963 30.2409C8.07992 31.9807 10.5385 31.9807 11.2221 30.2409L10.0587 29.7837ZM10.7742 28.6626L10.3141 27.5003C9.78346 27.7104 9.365 28.1313 9.15685 28.661L10.3203 29.1182L11.4837 29.5753C11.4393 29.6882 11.3496 29.7792 11.2342 29.8248L10.7742 28.6626ZM11.4373 26.8955L10.9772 28.0578C10.6041 27.9101 10.6041 27.3855 10.9772 27.2378L11.4373 28.4001L11.8974 29.5623C13.6307 28.8762 13.6307 26.4194 11.8974 25.7333L11.4373 26.8955ZM10.3203 26.1774L9.15685 26.6346C9.365 27.1643 9.78346 27.5852 10.3141 27.7953L10.7742 26.633L11.2342 25.4708C11.3496 25.5164 11.4393 25.6074 11.4837 25.7203L10.3203 26.1774ZM10.0587 25.5118L11.2221 25.0547C10.5385 23.3149 8.07992 23.3149 7.3963 25.0547L8.5597 25.5118L9.72311 25.969C9.57595 26.3435 9.04247 26.3435 8.89532 25.969L10.0587 25.5118Z" fill="#BA81EE"/>
</svg>
