<svg width="40" height="40" viewBox="0 0 40 40" fill="none" xmlns="http://www.w3.org/2000/svg">
<path fill-rule="evenodd" clip-rule="evenodd" d="M7.08033 14.4584C5.97359 14.2326 4.9487 13.7113 4.11455 12.9497C3.2804 12.1881 2.66817 11.2147 2.34292 10.133C2.01767 9.05136 1.99155 7.90177 2.26733 6.80644C2.54312 5.7111 3.1105 4.71094 3.9092 3.91225C4.70789 3.11355 5.70805 2.54617 6.80338 2.27038C7.89872 1.9946 9.04831 2.02072 10.13 2.34597C11.2117 2.67123 12.185 3.28345 12.9466 4.1176C13.7082 4.95175 14.2296 5.97664 14.4553 7.08338H25.5387C25.7644 5.97664 26.2858 4.95175 27.0474 4.1176C27.809 3.28345 28.7823 2.67123 29.864 2.34597C30.9457 2.02072 32.0953 1.9946 33.1906 2.27038C34.2859 2.54617 35.2861 3.11355 36.0848 3.91225C36.8835 4.71094 37.4509 5.7111 37.7267 6.80644C38.0024 7.90177 37.9763 9.05136 37.6511 10.133C37.3258 11.2147 36.7136 12.1881 35.8794 12.9497C35.0453 13.7113 34.0204 14.2326 32.9137 14.4584V25.5417C34.0204 25.7675 35.0453 26.2888 35.8794 27.0504C36.7136 27.812 37.3258 28.7854 37.6511 29.867C37.9763 30.9487 38.0024 32.0983 37.7267 33.1937C37.4509 34.289 36.8835 35.2891 36.0848 36.0878C35.2861 36.8865 34.2859 37.4539 33.1906 37.7297C32.0953 38.0055 30.9457 37.9794 29.864 37.6541C28.7823 37.3289 27.809 36.7166 27.0474 35.8825C26.2858 35.0483 25.7644 34.0234 25.5387 32.9167H14.4553C14.2296 34.0234 13.7082 35.0483 12.9466 35.8825C12.185 36.7166 11.2117 37.3289 10.13 37.6541C9.04831 37.9794 7.89872 38.0055 6.80338 37.7297C5.70805 37.4539 4.70789 36.8865 3.9092 36.0878C3.1105 35.2891 2.54312 34.289 2.26733 33.1937C1.99155 32.0983 2.01767 30.9487 2.34292 29.867C2.66817 28.7854 3.2804 27.812 4.11455 27.0504C4.9487 26.2888 5.97359 25.7675 7.08033 25.5417V14.4584ZM4.58033 8.33338C4.58033 7.84092 4.67732 7.35329 4.86578 6.89831C5.05423 6.44334 5.33046 6.02995 5.67868 5.68173C6.0269 5.33351 6.44029 5.05729 6.89526 4.86883C7.35023 4.68037 7.83787 4.58338 8.33033 4.58338C8.82278 4.58338 9.31042 4.68037 9.76539 4.86883C10.2204 5.05729 10.6338 5.33351 10.982 5.68173C11.3302 6.02995 11.6064 6.44334 11.7949 6.89831C11.9833 7.35329 12.0803 7.84092 12.0803 8.33338C12.0803 9.32794 11.6852 10.2818 10.982 10.985C10.2787 11.6883 9.32489 12.0834 8.33033 12.0834C7.33576 12.0834 6.38194 11.6883 5.67868 10.985C4.97541 10.2818 4.58033 9.32794 4.58033 8.33338ZM9.58033 25.5417V14.4584C10.7814 14.2134 11.884 13.6207 12.7508 12.7539C13.6176 11.8871 14.2104 10.7845 14.4553 9.58338H25.5387C25.7856 10.7836 26.3791 11.8851 27.2455 12.7515C28.112 13.618 29.2134 14.2114 30.4137 14.4584V25.5417C29.2134 25.7887 28.112 26.3821 27.2455 27.2486C26.3791 28.115 25.7856 29.2165 25.5387 30.4167H14.4553C14.2084 29.2165 13.6149 28.115 12.7485 27.2486C11.882 26.3821 10.7805 25.7887 9.58033 25.5417ZM8.33033 27.9167C7.33576 27.9167 6.38194 28.3118 5.67868 29.0151C4.97541 29.7183 4.58033 30.6721 4.58033 31.6667C4.58033 32.6613 4.97541 33.6151 5.67868 34.3184C6.38194 35.0216 7.33576 35.4167 8.33033 35.4167C9.32489 35.4167 10.2787 35.0216 10.982 34.3184C11.6852 33.6151 12.0803 32.6613 12.0803 31.6667C12.0803 30.6721 11.6852 29.7183 10.982 29.0151C10.2787 28.3118 9.32489 27.9167 8.33033 27.9167ZM35.4137 8.33338C35.4137 9.32794 35.0186 10.2818 34.3153 10.985C33.612 11.6883 32.6582 12.0834 31.6637 12.0834C30.6691 12.0834 29.7153 11.6883 29.012 10.985C28.3087 10.2818 27.9137 9.32794 27.9137 8.33338C27.9137 7.33882 28.3087 6.38499 29.012 5.68173C29.7153 4.97847 30.6691 4.58338 31.6637 4.58338C32.6582 4.58338 33.612 4.97847 34.3153 5.68173C35.0186 6.38499 35.4137 7.33882 35.4137 8.33338ZM27.9137 31.6667C27.9137 30.6721 28.3087 29.7183 29.012 29.0151C29.7153 28.3118 30.6691 27.9167 31.6637 27.9167C32.6582 27.9167 33.612 28.3118 34.3153 29.0151C35.0186 29.7183 35.4137 30.6721 35.4137 31.6667C35.4137 32.6613 35.0186 33.6151 34.3153 34.3184C33.612 35.0216 32.6582 35.4167 31.6637 35.4167C30.6691 35.4167 29.7153 35.0216 29.012 34.3184C28.3087 33.6151 27.9137 32.6613 27.9137 31.6667Z" fill="#FFAF68"/>
</svg>
